<svg xmlns="http://www.w3.org/2000/svg" viewBox="0 0 24 24" fill="none" stroke="none" aria-hidden="true">
  <linearGradient id="igGradient" x1="0%" y1="0%" x2="100%" y2="100%">
    <stop offset="0%" stop-color="#F58529"/>
    <stop offset="50%" stop-color="#DD2A7B"/>
    <stop offset="100%" stop-color="#8134AF"/>
  </linearGradient>
  <path fill="url(#igGradient)" d="M12 2.2c3.2 0 3.6 0 4.9.07 1.2.06 1.9.25 2.35.41.59.23 1.01.5 1.45.94.44.44.71.86.94 1.45.16.45.35 1.15.41 2.35.07 1.3.07 1.7.07 4.9s0 3.6-.07 4.9c-.06 1.2-.25 1.9-.41 2.35a4 4 0 0 1-.94 1.45 4 4 0 0 1-1.45.94c-.45.16-1.15.35-2.35.41-1.3.07-1.7.07-4.9.07s-3.6 0-4.9-.07c-1.2-.06-1.9-.25-2.35-.41a4 4 0 0 1-1.45-.94 4 4 0 0 1-.94-1.45c-.16-.45-.35-1.15-.41-2.35C2.2 15.6 2.2 15.2 2.2 12s0-3.6.07-4.9c.06-1.2.25-1.9.41-2.35.23-.59.5-1.01.94-1.45.44-.44.86-.71 1.45-.94.45-.16 1.15-.35 2.35-.41C8.4 2.2 8.8 2.2 12 2.2Zm0 1.8c-3.17 0-3.55 0-4.8.07-.99.05-1.53.21-1.88.35-.47.18-.8.39-1.15.74-.35.35-.56.68-.74 1.15-.14.35-.31.89-.35 1.88C3.1 9.35 3.1 9.73 3.1 12s0 2.65.07 3.8c.05.99.21 1.53.35 1.88.18.47.39.8.74 1.15.35.35.68.56 1.15.74.35.14.89.31 1.88.35 1.25.07 1.63.07 4.8.07s3.55 0 4.8-.07c.99-.05 1.53-.21 1.88-.35.47-.18.8-.39 1.15-.74.35-.35.56-.68.74-1.15.14-.35.31-.89.35-1.88.07-1.15.07-1.53.07-3.8s0-2.65-.07-3.8c-.05-.99-.21-1.53-.35-1.88a3 3 0 0 0-.74-1.15 3 3 0 0 0-1.15-.74c-.35-.14-.89-.31-1.88-.35-1.25-.07-1.63-.07-4.8-.07Zm0 3.5a5.5 5.5 0 1 1 0 11.001 5.5 5.5 0 0 1 0-11Zm0 1.8a3.7 3.7 0 1 0 0 7.401 3.7 3.7 0 0 0 0-7.4Zm5.8-2.22a1.3 1.3 0 1 1-2.6-.001 1.3 1.3 0 0 1 2.6.001Z"/>
</svg>