<svg xmlns="http://www.w3.org/2000/svg" viewBox="0 0 24 24" fill="none" stroke="none" aria-hidden="true">
  <path fill="#25D366" d="M20.52 3.48A11.77 11.77 0 0 0 12.06 0C5.48.02.25 5.26.27 11.84c0 2.08.55 4.11 1.6 5.9L0 24l6.39-1.66a11.8 11.8 0 0 0 5.65 1.44h.01c6.58-.02 11.81-5.26 11.81-11.85 0-3.16-1.23-6.13-3.34-8.35ZM12.05 21.2h-.01c-1.77 0-3.51-.47-5.02-1.37l-.36-.21-3.79.98 1.01-3.7-.24-.38A9.52 9.52 0 0 1 2.9 11.83C2.88 6.58 7.15 2.31 12.39 2.29a9.54 9.54 0 0 1 9.53 9.54c0 5.25-4.27 9.48-9.87 9.48Z"/>
  <path fill="#fff" d="M17.66 14.35c-.27-.14-1.6-.79-1.85-.88-.25-.09-.43-.14-.61.14-.18.27-.7.88-.86 1.06-.16.18-.32.2-.59.07-.27-.14-1.12-.41-2.13-1.31-.79-.7-1.33-1.57-1.48-1.84-.16-.27-.02-.42.12-.56.12-.12.27-.32.41-.48.14-.16.18-.27.27-.45.09-.18.05-.34-.02-.48-.07-.14-.61-1.47-.84-2.01-.22-.53-.45-.46-.61-.46-.16 0-.34-.02-.52-.02-.18 0-.48.07-.73.34-.25.27-.96.94-.96 2.29 0 1.35.99 2.65 1.13 2.83.14.18 1.95 2.98 4.72 4.16.66.29 1.17.46 1.57.59.66.21 1.26.18 1.73.11.53-.08 1.6-.65 1.83-1.29.23-.64.23-1.19.16-1.3-.07-.11-.25-.18-.52-.32Z"/>
</svg>